<svg xmlns="http://www.w3.org/2000/svg" width="34.435" height="33" viewBox="0 0 34.435 33">
  <g id="folder" transform="translate(0 -1)">
    <path id="Path_447" data-name="Path 447" d="M13.63,24.674a11.47,11.47,0,0,1,17.935-9.482V7.815A3.949,3.949,0,0,0,27.62,3.87H14.794L12.239,1.316A1.072,1.072,0,0,0,11.478,1H3.946A3.949,3.949,0,0,0,0,4.946V22.88a3.949,3.949,0,0,0,3.946,3.946H13.84A11.449,11.449,0,0,1,13.63,24.674Z" fill="#b7b7d4"/>
    <path id="Path_448" data-name="Path 448" d="M20.326,11a9.326,9.326,0,1,0,9.326,9.326A9.337,9.337,0,0,0,20.326,11Zm3.167,12.493a1.434,1.434,0,0,1-2.029,0L19.312,21.34a1.429,1.429,0,0,1-.42-1.014V16.739a1.435,1.435,0,1,1,2.87,0v2.993l1.732,1.732A1.433,1.433,0,0,1,23.493,23.493Z" transform="translate(4.783 4.348)" fill="#b7b7d4"/>
  </g>
</svg>
