<svg xmlns="http://www.w3.org/2000/svg" width="39.056" height="27.641" viewBox="0 0 39.056 27.641">
  <g id="sports-car" transform="translate(0 -5.707)">
    <g id="Group_685" data-name="Group 685">
      <path id="Path_449" data-name="Path 449" d="M38.831,14.26a1,1,0,0,0-.775-.369h-3.8c-.938-2.474-2.16-4.9-3.549-5.813-4.805-3.161-17.55-3.161-22.355,0-1.39.916-2.607,3.343-3.55,5.813H1a1,1,0,0,0-.979,1.2l.563,2.728a1,1,0,0,0,.979.8H2.689a6.752,6.752,0,0,0-1.621,4.413A6.611,6.611,0,0,0,3.157,28c.015.013.03.022.044.035v3.817a1.5,1.5,0,0,0,1.5,1.5H8.207a1.5,1.5,0,0,0,1.5-1.5V30.314H29.348v1.534a1.5,1.5,0,0,0,1.5,1.5h3.506a1.5,1.5,0,0,0,1.5-1.5V28.106a6.861,6.861,0,0,0,.438-9.489h1.2a1,1,0,0,0,.979-.8l.564-2.727A1.008,1.008,0,0,0,38.831,14.26ZM10,10.583c3.83-2.521,15.229-2.521,19.057,0,.744.488,1.7,2.461,2.578,4.877H7.422C8.3,13.045,9.254,11.073,10,10.583ZM5.512,23.408a2.951,2.951,0,1,1,2.951,2.951A2.951,2.951,0,0,1,5.512,23.408Zm25.119,2.951a2.951,2.951,0,1,1,2.951-2.951A2.951,2.951,0,0,1,30.631,26.359Z" fill="#b7b7d4"/>
    </g>
  </g>
</svg>
