<svg id="business-report_1_" data-name="business-report (1)" xmlns="http://www.w3.org/2000/svg" width="32.479" height="30.322" viewBox="0 0 32.479 30.322">
  <path id="Path_269" data-name="Path 269" d="M305.652,153.017a3.617,3.617,0,0,0-2.187,5.28l2.187-2.187Z" transform="translate(-283.767 -144.389)" fill="#355fd0"/>
  <path id="Path_270" data-name="Path 270" d="M158.131,431.284h-1.224L156.527,429h-8.971l-.381,2.284h-1.224a.952.952,0,1,0,0,1.9h12.179a.952.952,0,0,0,0-1.9Z" transform="translate(-135.802 -402.865)" fill="#355fd0"/>
  <path id="Path_271" data-name="Path 271" d="M331.742,225.187a3.617,3.617,0,0,0,5.28-2.187h-3.094Z" transform="translate(-310.698 -209.932)" fill="#355fd0"/>
  <path id="Path_272" data-name="Path 272" d="M29.624,17H17.191v2.981a.952.952,0,1,1-1.9,0V17H2.855A2.858,2.858,0,0,0,0,19.855V38.378a2.858,2.858,0,0,0,2.855,2.855H29.624a2.858,2.858,0,0,0,2.855-2.855V19.855A2.858,2.858,0,0,0,29.624,17ZM14.146,34.191a.952.952,0,0,1-.952.952H5.075a.952.952,0,0,1-.952-.952V24.041a.952.952,0,1,1,1.9,0v9.2H8.183V27.086a.952.952,0,1,1,1.9,0v6.153h2.157V30.131a.952.952,0,1,1,1.9,0Zm8.691.444a5.519,5.519,0,1,1,5.519-5.519A5.526,5.526,0,0,1,22.836,34.635Z" transform="translate(0 -17)" fill="#355fd0"/>
  <path id="Path_273" data-name="Path 273" d="M375,153.017v2.536h2.536A3.629,3.629,0,0,0,375,153.017Z" transform="translate(-351.212 -144.389)" fill="#355fd0"/>
</svg>
