<svg id="business-report_1_" data-name="business-report (1)" xmlns="http://www.w3.org/2000/svg" width="27.222" height="25.415" viewBox="0 0 27.222 25.415">
  <path id="Path_269" data-name="Path 269" d="M305.652,153.017a3.617,3.617,0,0,0-2.187,5.28l2.187-2.187Z" transform="translate(-287.156 -146.08)" fill="#fff"/>
  <path id="Path_270" data-name="Path 270" d="M158.131,431.284h-1.224L156.527,429h-8.971l-.381,2.284h-1.224a.952.952,0,1,0,0,1.9h12.179a.952.952,0,0,0,0-1.9Z" transform="translate(-138.43 -407.772)" fill="#fff"/>
  <path id="Path_271" data-name="Path 271" d="M331.742,225.187a3.617,3.617,0,0,0,5.28-2.187h-3.094Z" transform="translate(-314.765 -212.251)" fill="#fff"/>
  <path id="Path_272" data-name="Path 272" d="M24.83,17H14.409v2.378a.8.8,0,0,1-1.6,0V17H2.393A2.339,2.339,0,0,0,0,19.276V34.048a2.339,2.339,0,0,0,2.393,2.276H24.83a2.339,2.339,0,0,0,2.393-2.276V19.276A2.339,2.339,0,0,0,24.83,17ZM11.857,30.71a.779.779,0,0,1-.8.759H4.253a.779.779,0,0,1-.8-.759V22.615a.8.8,0,0,1,1.6,0v7.335H6.859V25.044a.8.8,0,0,1,1.6,0v4.907h1.808V27.472a.8.8,0,0,1,1.6,0Zm7.284.354a4.407,4.407,0,1,1,0-8.8,4.407,4.407,0,1,1,0,8.8Z" transform="translate(0 -17)" fill="#fff"/>
  <path id="Path_273" data-name="Path 273" d="M375,153.017v2.536h2.536A3.629,3.629,0,0,0,375,153.017Z" transform="translate(-355.388 -145.913)" fill="#fff"/>
</svg>
