<svg id="calculator_1_" data-name="calculator (1)" xmlns="http://www.w3.org/2000/svg" width="21" height="21" viewBox="0 0 21 21">
  <path id="Path_366" data-name="Path 366" d="M79.615,81.666h.82v.82a.615.615,0,0,0,1.23,0v-.82h.82a.615.615,0,0,0,0-1.23h-.82v-.82a.615.615,0,0,0-1.23,0v.82h-.82a.615.615,0,0,0,0,1.23Z" transform="translate(-75.76 -75.76)" fill="#fff"/>
  <path id="Path_367" data-name="Path 367" d="M312.615,115.23h2.461a.615.615,0,0,0,0-1.23h-2.461a.615.615,0,0,0,0,1.23Z" transform="translate(-299.203 -109.324)" fill="#fff"/>
  <path id="Path_368" data-name="Path 368" d="M310.486,367h-2.871a.615.615,0,0,0,0,1.23h2.871a.615.615,0,0,0,0-1.23Z" transform="translate(-294.408 -351.947)" fill="#fff"/>
  <path id="Path_369" data-name="Path 369" d="M310.486,317h-2.871a.615.615,0,0,0,0,1.23h2.871a.615.615,0,0,0,0-1.23Z" transform="translate(-294.408 -303.998)" fill="#fff"/>
  <path id="Path_370" data-name="Path 370" d="M92.1,317.18a.615.615,0,0,0-.87,0l-.59.59-.59-.59a.615.615,0,1,0-.87.87l.59.59-.59.59a.615.615,0,1,0,.87.87l.59-.59.59.59a.615.615,0,0,0,.87-.87l-.59-.59.59-.59A.615.615,0,0,0,92.1,317.18Z" transform="translate(-85.349 -303.998)" fill="#fff"/>
  <path id="Path_371" data-name="Path 371" d="M19.934,11.122V1.846A1.848,1.848,0,0,0,18.088,0H1.846A1.848,1.848,0,0,0,0,1.846V18.088a1.848,1.848,0,0,0,1.846,1.846h9.276a6.354,6.354,0,0,0,8.811-8.811ZM18.7,1.846V9.755a6.345,6.345,0,0,0-8.121,0V1.23h7.506A.616.616,0,0,1,18.7,1.846ZM1.846,1.23H9.352V9.352H1.23V1.846A.616.616,0,0,1,1.846,1.23ZM1.23,18.088V10.582H9.352v.54a6.344,6.344,0,0,0,.4,7.581H1.846A.616.616,0,0,1,1.23,18.088ZM14.643,19.77a5.127,5.127,0,1,1,5.127-5.127A5.133,5.133,0,0,1,14.643,19.77Z" fill="#fff"/>
</svg>
