<svg xmlns="http://www.w3.org/2000/svg" width="31.367" height="36.5" viewBox="0 0 31.367 36.5">
  <g id="file_1_" data-name="file (1)" transform="translate(2.668 0)">
    <path id="Path_426" data-name="Path 426" d="M416.926,17.586h6.484l-6.825-6.7v6.363A.341.341,0,0,0,416.926,17.586Zm0,0" transform="translate(-395.343 -10.262)" fill="#fff"/>
    <path id="Path_427" data-name="Path 427" d="M21.583,9.463A2.482,2.482,0,0,1,19.1,6.984V0H1.322a3.994,3.994,0,0,0-3.99,3.99V32.51a3.994,3.994,0,0,0,3.99,3.99H24.71a3.994,3.994,0,0,0,3.99-3.99V9.463Zm-2.444,18.2H5.366a1.069,1.069,0,1,1,0-2.139H19.139a1.069,1.069,0,0,1,0,2.139ZM4.3,22.314a1.069,1.069,0,0,1,1.069-1.069H17.656a1.069,1.069,0,0,1,0,2.139H5.366A1.069,1.069,0,0,1,4.3,22.314Zm16.143-3.208H5.366a1.069,1.069,0,1,1,0-2.139H20.439a1.069,1.069,0,1,1,0,2.139Zm0,0" fill="#fff"/>
  </g>
</svg>
