<svg xmlns="http://www.w3.org/2000/svg" width="28.438" height="36.4" viewBox="0 0 28.438 36.4">
  <g id="shield_1_" data-name="shield (1)" transform="translate(-55.999)">
    <g id="Group_636" data-name="Group 636" transform="translate(58.843 13.223)">
      <g id="Group_635" data-name="Group 635" transform="translate(0)">
        <path id="Path_431" data-name="Path 431" d="M96.71,186a.711.711,0,1,0,.711.711A.711.711,0,0,0,96.71,186Z" transform="translate(-95.999 -185.998)" fill="#fff"/>
      </g>
    </g>
    <g id="Group_638" data-name="Group 638" transform="translate(63.108 10.38)">
      <g id="Group_637" data-name="Group 637">
        <path id="Path_432" data-name="Path 432" d="M169.507,150.264h-3.555v-3.555a.711.711,0,0,0-.711-.711h-4.266a.711.711,0,0,0-.711.711v3.555H156.71a.711.711,0,0,0-.711.711v4.266a.711.711,0,0,0,.711.711h3.555v3.555a.711.711,0,0,0,.711.711h4.266a.711.711,0,0,0,.711-.711v-3.555h3.555a.711.711,0,0,0,.711-.711v-4.266A.711.711,0,0,0,169.507,150.264Zm-.711,4.266h-3.555a.711.711,0,0,0-.711.711v3.555h-2.844V155.24a.711.711,0,0,0-.711-.711h-3.555v-2.844h3.555a.711.711,0,0,0,.711-.711V147.42h2.844v3.555a.711.711,0,0,0,.711.711H168.8Z" transform="translate(-155.999 -145.998)" fill="#fff"/>
      </g>
    </g>
    <g id="Group_640" data-name="Group 640" transform="translate(55.999)">
      <g id="Group_639" data-name="Group 639">
        <path id="Path_433" data-name="Path 433" d="M81.193,2.185a7.081,7.081,0,0,1-3.866,1.142A7.1,7.1,0,0,1,71.877.784h0a2.149,2.149,0,0,0-3.319,0,7.1,7.1,0,0,1-5.45,2.544,7.082,7.082,0,0,1-3.866-1.142A2.123,2.123,0,0,0,56,4V18.5a14.827,14.827,0,0,0,2.913,8.874,30.126,30.126,0,0,0,11.025,8.964.71.71,0,0,0,.561,0,30.128,30.128,0,0,0,11.025-8.963A14.831,14.831,0,0,0,84.437,18.5V4A2.123,2.123,0,0,0,81.193,2.185Zm-.806,24.339a29.486,29.486,0,0,1-10.17,8.381,29.4,29.4,0,0,1-10.169-8.382A13.4,13.4,0,0,1,57.421,18.5V4a.7.7,0,0,1,1.047-.625,8.5,8.5,0,0,0,4.64,1.372A8.516,8.516,0,0,0,69.648,1.7a.728.728,0,0,1,1.14,0A8.517,8.517,0,0,0,77.327,4.75a8.5,8.5,0,0,0,4.64-1.372A.7.7,0,0,1,83.015,4V18.5h0A13.4,13.4,0,0,1,80.387,26.524Z" transform="translate(-55.999 0)" fill="#fff"/>
      </g>
    </g>
    <g id="Group_642" data-name="Group 642" transform="translate(58.843 3.451)">
      <g id="Group_641" data-name="Group 641" transform="translate(0)">
        <path id="Path_434" data-name="Path 434" d="M118.449,50.777a.711.711,0,0,0-.648-.089,9.928,9.928,0,0,1-9.953-1.968.711.711,0,0,0-.947,0,9.928,9.928,0,0,1-9.953,1.968.711.711,0,0,0-.949.67v4.821a.711.711,0,0,0,1.422,0v-3.86a11.347,11.347,0,0,0,9.953-2.138,11.347,11.347,0,0,0,9.953,2.138V63.593a10.528,10.528,0,0,1-2.057,6.309,26.317,26.317,0,0,1-7.889,6.88,26.557,26.557,0,0,1-7.9-6.879,10.537,10.537,0,0,1-2.057-6.31V61.866a.711.711,0,0,0-1.422,0v1.726a11.966,11.966,0,0,0,2.342,7.165,28.069,28.069,0,0,0,8.7,7.461.711.711,0,0,0,.684,0,27.8,27.8,0,0,0,8.686-7.463,11.958,11.958,0,0,0,2.343-7.164V51.358A.711.711,0,0,0,118.449,50.777Z" transform="translate(-96 -48.539)" fill="#fff"/>
      </g>
    </g>
  </g>
</svg>
