<svg xmlns="http://www.w3.org/2000/svg" width="28" height="36.759" viewBox="0 0 28 36.759">
  <g id="shield_1_" data-name="shield (1)" transform="translate(-61.004 0)">
    <path id="Path_450" data-name="Path 450" d="M186.389,181.007a5.385,5.385,0,1,0,5.385,5.385A5.391,5.391,0,0,0,186.389,181.007Zm2.154,6.462h-1.077v1.077a1.077,1.077,0,0,1-2.154,0v-1.077h-1.077a1.077,1.077,0,0,1,0-2.154h1.077v-1.077a1.077,1.077,0,1,1,2.154,0v1.077h1.077a1.077,1.077,0,0,1,0,2.154Z" transform="translate(-111.385 -168.011)" fill="#b7b7d4"/>
    <path id="Path_451" data-name="Path 451" d="M87.927,4.38A20.271,20.271,0,0,1,76.687.905L75.6.182a1.074,1.074,0,0,0-1.195,0L73.321.905A20.271,20.271,0,0,1,62.081,4.38,1.076,1.076,0,0,0,61,5.457V17.681A20.041,20.041,0,0,0,74.663,36.7a1.07,1.07,0,0,0,.681,0A20.041,20.041,0,0,0,89,17.681V5.457A1.076,1.076,0,0,0,87.927,4.38ZM75,25.919a7.538,7.538,0,1,1,7.538-7.538A7.548,7.548,0,0,1,75,25.919Z" transform="translate(0 0)" fill="#b7b7d4"/>
  </g>
</svg>
