<svg xmlns="http://www.w3.org/2000/svg" width="30.338" height="30.339" viewBox="0 0 30.338 30.339">
  <g id="back-arrow" transform="translate(-0.007)">
    <g id="Group_686" data-name="Group 686" transform="translate(0.007 0)">
      <path id="Path_452" data-name="Path 452" d="M11.925,6.53V1.083A1.084,1.084,0,0,0,10.036.358L.284,11.194A1.084,1.084,0,0,0,.251,12.6L10,24.521a1.084,1.084,0,0,0,1.922-.684v-5.4c8.56.278,13.9,3.938,16.31,11.161a1.083,1.083,0,0,0,1.027.74,1.05,1.05,0,0,0,.174-.014,1.084,1.084,0,0,0,.909-1.069C30.345,16.5,22.664,7.122,11.925,6.53Z" transform="translate(-0.007 0)" fill="#b7b7d4"/>
    </g>
  </g>
</svg>
