<svg xmlns="http://www.w3.org/2000/svg" width="33" height="37.736" viewBox="0 0 33 37.736">
  <g id="file_2_" data-name="file (2)" transform="translate(0 0)">
    <path id="Path_428" data-name="Path 428" d="M92.012,305.431a1.105,1.105,0,0,0-1.076-.048l-4.194,2.1-3.427-2.056a1.106,1.106,0,0,0-1.1-.022l-3.835,2.092-4.22-2.11a1.105,1.105,0,0,0-1.108.069l-3.019,2.012-4.163-2.081a1.105,1.105,0,0,0-1.6.989v10.657a3.473,3.473,0,0,0,3.474,3.474H89.062a3.472,3.472,0,0,0,3.474-3.474V306.372a1.1,1.1,0,0,0-.525-.941Zm-6.5,8.559H71.3a1.106,1.106,0,0,1,0-2.211h14.21a1.106,1.106,0,0,1,0,2.211Zm0,0" transform="translate(-59.536 -282.767)" fill="#fff"/>
    <path id="Path_429" data-name="Path 429" d="M8.29,0V7.026A1.265,1.265,0,0,1,7.027,8.289H0V8.21a1.108,1.108,0,0,1,.324-.782l7.1-7.1A1.107,1.107,0,0,1,8.211,0Zm0,0" transform="translate(0)" fill="#fff"/>
    <path id="Path_430" data-name="Path 430" d="M28.263,3.474A3.472,3.472,0,0,0,24.789,0H10.5V7.026A3.478,3.478,0,0,1,7.026,10.5H0V21.236a1.106,1.106,0,0,0,1.6.989l4.194-2.1,3.427,2.056a1.105,1.105,0,0,0,1.1.022l3.835-2.092,4.22,2.11a1.105,1.105,0,0,0,1.108-.069L22.5,20.144l4.163,2.082a1.106,1.106,0,0,0,1.6-.989ZM21.237,15.237H7.027a1.106,1.106,0,1,1,0-2.211h14.21a1.106,1.106,0,0,1,0,2.211Zm0-4.737h-7.1a1.106,1.106,0,0,1,0-2.211h7.1a1.106,1.106,0,0,1,0,2.211Zm0,0" transform="translate(0 0)" fill="#fff"/>
  </g>
</svg>
