<svg xmlns="http://www.w3.org/2000/svg" width="24.87" height="29.809" viewBox="0 0 24.87 29.809">
  <g id="user3" transform="translate(0 0)">
    <path id="Path_424" data-name="Path 424" d="M94.211,14.359a6.947,6.947,0,0,0,5.077-2.1,6.947,6.947,0,0,0,2.1-5.076,6.948,6.948,0,0,0-2.1-5.076,7.178,7.178,0,0,0-10.153,0,6.947,6.947,0,0,0-2.1,5.076,6.947,6.947,0,0,0,2.1,5.077A6.949,6.949,0,0,0,94.211,14.359Zm0,0" transform="translate(-81.965 0)" fill="#fff"/>
    <path id="Path_425" data-name="Path 425" d="M24.809,255.839a17.735,17.735,0,0,0-.242-1.884,14.842,14.842,0,0,0-.463-1.894,9.353,9.353,0,0,0-.778-1.766,6.664,6.664,0,0,0-1.174-1.53,5.176,5.176,0,0,0-1.686-1.06,5.828,5.828,0,0,0-2.153-.39,2.185,2.185,0,0,0-1.167.495c-.35.228-.759.492-1.216.784a6.964,6.964,0,0,1-1.573.693,6.108,6.108,0,0,1-3.848,0,6.948,6.948,0,0,1-1.572-.693c-.452-.289-.862-.553-1.217-.784a2.182,2.182,0,0,0-1.166-.495,5.821,5.821,0,0,0-2.153.39,5.172,5.172,0,0,0-1.687,1.06,6.666,6.666,0,0,0-1.174,1.53,9.373,9.373,0,0,0-.778,1.766A14.877,14.877,0,0,0,.3,253.955a17.672,17.672,0,0,0-.242,1.884C.02,256.41,0,257,0,257.6a4.95,4.95,0,0,0,1.47,3.745,5.292,5.292,0,0,0,3.788,1.382H19.611a5.291,5.291,0,0,0,3.788-1.382,4.948,4.948,0,0,0,1.47-3.745c0-.6-.02-1.193-.06-1.761Zm0,0" transform="translate(0 -232.917)" fill="#fff"/>
  </g>
</svg>
